<svg width="25" height="25" viewBox="0 0 25 25" fill="none" xmlns="http://www.w3.org/2000/svg">
<path d="M11.8869 10.9869C9.61691 10.3969 8.88691 9.78691 8.88691 8.83691C8.88691 7.74691 9.89691 6.98691 11.5869 6.98691C13.0069 6.98691 13.7169 7.52691 13.9769 8.38691C14.0969 8.78691 14.4269 9.08691 14.8469 9.08691H15.1469C15.8069 9.08691 16.2769 8.43691 16.0469 7.81691C15.6269 6.63691 14.6469 5.65691 13.0869 5.27691V4.58691C13.0869 3.75691 12.4169 3.08691 11.5869 3.08691C10.7569 3.08691 10.0869 3.75691 10.0869 4.58691V5.24691C8.14691 5.66691 6.58691 6.92691 6.58691 8.85691C6.58691 11.1669 8.49691 12.3169 11.2869 12.9869C13.7869 13.5869 14.2869 14.4669 14.2869 15.3969C14.2869 16.0869 13.7969 17.1869 11.5869 17.1869C9.93691 17.1869 9.08691 16.5969 8.75691 15.7569C8.60691 15.3669 8.26691 15.0869 7.85691 15.0869H7.57691C6.90691 15.0869 6.43691 15.7669 6.68691 16.3869C7.25691 17.7769 8.58691 18.5969 10.0869 18.9169V19.5869C10.0869 20.4169 10.7569 21.0869 11.5869 21.0869C12.4169 21.0869 13.0869 20.4169 13.0869 19.5869V18.9369C15.0369 18.5669 16.5869 17.4369 16.5869 15.3869C16.5869 12.5469 14.1569 11.5769 11.8869 10.9869Z" fill="#2CB3FF"/>
</svg>
