<svg width="24" height="24" viewBox="0 0 24 24" fill="none" xmlns="http://www.w3.org/2000/svg">
<path d="M12.3372 24C13.691 24 14.7987 22.8923 14.7987 21.5385H9.87566C9.87566 22.8923 10.971 24 12.3372 24ZM19.7218 16.6154V10.4615C19.7218 6.68308 17.7034 3.52 14.1834 2.68308V1.84615C14.1834 0.824615 13.3587 0 12.3372 0C11.3157 0 10.491 0.824615 10.491 1.84615V2.68308C6.95874 3.52 4.95259 6.67077 4.95259 10.4615V16.6154L3.3649 18.2031C2.58951 18.9785 3.13105 20.3077 4.22643 20.3077H20.4357C21.531 20.3077 22.0849 18.9785 21.3095 18.2031L19.7218 16.6154Z" fill="#2CB3FF"/>
</svg>
