<svg width="360" height="85" viewBox="0 0 360 85" fill="none" xmlns="http://www.w3.org/2000/svg">
<path d="M0 8H86.5519C103.12 8 119.623 10.0587 135.684 14.1287L158.936 20.0214C175.692 24.2679 193.263 24.0983 209.934 19.5291L226.046 15.1133C243.271 10.3924 261.051 8 278.911 8H360V65C360 76.0457 351.046 85 340 85H20C8.95431 85 0 76.0457 0 65V8Z" fill="#0937AD" fill-opacity="0.46"/>
<g clip-path="url(#clip0_59_246)">
<path d="M55.1585 34.0046C48.4791 33.8209 43.0071 39.1879 43.0071 45.8148H40.6581C40.0676 45.8148 39.7789 46.5234 40.1989 46.9302L43.86 50.6045C44.1225 50.8669 44.5293 50.8669 44.7917 50.6045L48.4529 46.9302C48.8597 46.5234 48.571 45.8148 47.9805 45.8148H45.6315C45.6315 40.697 49.8045 36.5635 54.9485 36.6291C59.83 36.6947 63.9374 40.802 64.003 45.6836C64.0686 50.8144 59.935 55.0005 54.8173 55.0005C52.7046 55.0005 50.7493 54.2788 49.2009 53.0584C48.676 52.6516 47.9411 52.691 47.4687 53.1634C46.9175 53.7145 46.9569 54.6462 47.5737 55.1186C49.5683 56.6933 52.0747 57.625 54.8173 57.625C61.4441 57.625 66.8112 52.1529 66.6275 45.4736C66.4569 39.3192 61.3129 34.1752 55.1585 34.0046ZM54.4892 40.5658C53.9512 40.5658 53.505 41.012 53.505 41.55V46.3791C53.505 46.8383 53.7543 47.2714 54.148 47.5076L58.2422 49.9352C58.7146 50.2108 59.3183 50.0533 59.5938 49.5941C59.8694 49.1216 59.7119 48.518 59.2527 48.2424L55.4734 45.9985V41.5369C55.4734 41.012 55.0272 40.5658 54.4892 40.5658Z" fill="#2CB3FF"/>
</g>
<g clip-path="url(#clip1_59_246)">
<path d="M119 58C125.218 58 130.335 53.2655 130.945 47.2C131.011 46.5564 130.498 46 129.855 46C129.298 46 128.829 46.4145 128.775 46.96C128.295 51.9345 124.095 55.8182 119 55.8182C115.596 55.8182 112.596 54.0836 110.84 51.4545H112.455C113.055 51.4545 113.545 50.9636 113.545 50.3636C113.545 49.7636 113.055 49.2727 112.455 49.2727H108.091C107.491 49.2727 107 49.7636 107 50.3636V54.7273C107 55.3273 107.491 55.8182 108.091 55.8182C108.691 55.8182 109.182 55.3273 109.182 54.7273V52.9055C111.353 55.9818 114.942 58 119 58ZM119 34C112.782 34 107.665 38.7345 107.055 44.8C107 45.4436 107.502 46 108.145 46C108.702 46 109.171 45.5855 109.225 45.04C109.705 40.0655 113.905 36.1818 119 36.1818C122.404 36.1818 125.404 37.9164 127.16 40.5455H125.545C124.945 40.5455 124.455 41.0364 124.455 41.6364C124.455 42.2364 124.945 42.7273 125.545 42.7273H129.909C130.509 42.7273 131 42.2364 131 41.6364V37.2727C131 36.6727 130.509 36.1818 129.909 36.1818C129.309 36.1818 128.818 36.6727 128.818 37.2727V39.0945C126.647 36.0182 123.058 34 119 34ZM118.04 39.3236C118.04 38.7891 118.476 38.3636 119 38.3636C119.524 38.3636 119.96 38.7891 119.96 39.3236V39.7273C121.127 39.9345 121.869 40.5564 122.316 41.1455C122.687 41.6255 122.491 42.3236 121.924 42.5636C121.531 42.7273 121.073 42.5964 120.811 42.2582C120.505 41.8436 119.96 41.4182 119.065 41.4182C118.302 41.4182 117.091 41.8218 117.091 42.9345C117.091 43.9709 118.029 44.3636 119.971 45.0073C122.589 45.9127 123.255 47.2436 123.255 48.7709C123.255 51.6291 120.527 52.1855 119.96 52.2836V52.6873C119.96 53.2109 119.535 53.6473 119 53.6473C118.465 53.6473 118.04 53.2218 118.04 52.6873V52.2291C117.353 52.0655 115.935 51.5636 115.105 49.9382C114.855 49.4582 115.138 48.8255 115.64 48.6291C116.087 48.4545 116.622 48.6182 116.851 49.0436C117.2 49.7091 117.887 50.5382 119.164 50.5382C120.178 50.5382 121.324 50.0145 121.324 48.7818C121.324 47.7345 120.56 47.1891 118.836 46.5673C117.636 46.1418 115.182 45.4436 115.182 42.9564C115.182 42.8473 115.193 40.3382 118.04 39.7273V39.3236Z" fill="#2CB3FF"/>
</g>
<g clip-path="url(#clip2_59_246)">
<path d="M234.4 41.2H234.743C236.063 41.2 237.143 42.28 237.143 43.6V55.6C237.143 56.92 236.063 58 234.743 58H234.4C233.08 58 232 56.92 232 55.6V43.6C232 42.28 233.08 41.2 234.4 41.2V41.2ZM244 34C245.32 34 246.4 35.08 246.4 36.4V55.6C246.4 56.92 245.32 58 244 58C242.68 58 241.6 56.92 241.6 55.6V36.4C241.6 35.08 242.68 34 244 34ZM253.6 47.7143C254.92 47.7143 256 48.7943 256 50.1143V55.6C256 56.92 254.92 58 253.6 58C252.28 58 251.2 56.92 251.2 55.6V50.1143C251.2 48.7943 252.28 47.7143 253.6 47.7143V47.7143Z" fill="#2CB3FF"/>
</g>
<g clip-path="url(#clip3_59_246)">
<path d="M308 45.6C306.453 45.6 305.18 45.1 304.18 44.1C303.18 43.1 302.68 41.8267 302.68 40.28C302.68 38.7333 303.18 37.4667 304.18 36.48C305.18 35.4933 306.453 35 308 35C309.547 35 310.82 35.4933 311.82 36.48C312.82 37.4667 313.32 38.7333 313.32 40.28C313.32 41.8267 312.82 43.1 311.82 44.1C310.82 45.1 309.547 45.6 308 45.6ZM296 57.8V54.76C296 53.9067 296.227 53.16 296.68 52.52C297.133 51.88 297.72 51.3867 298.44 51.04C300.147 50.2933 301.78 49.7333 303.34 49.36C304.9 48.9867 306.453 48.8 308 48.8C309.547 48.8 311.1 48.9933 312.66 49.38C314.22 49.7667 315.84 50.32 317.52 51.04C318.267 51.3867 318.867 51.88 319.32 52.52C319.773 53.16 320 53.9067 320 54.76V57.8H296Z" fill="#2CB3FF"/>
</g>
<circle cx="184" cy="25" r="24.5" fill="#301B57" stroke="url(#paint0_linear_59_246)"/>
<g clip-path="url(#clip4_59_246)">
<path d="M193.4 15.2002H174.2C172.868 15.2002 171.812 16.2682 171.812 17.6002L171.8 32.0002C171.8 33.3322 172.868 34.4002 174.2 34.4002H193.4C194.732 34.4002 195.8 33.3322 195.8 32.0002V17.6002C195.8 16.2682 194.732 15.2002 193.4 15.2002ZM192.2 32.0002H175.4C174.74 32.0002 174.2 31.4602 174.2 30.8002V24.8002H193.4V30.8002C193.4 31.4602 192.86 32.0002 192.2 32.0002ZM193.4 20.0002H174.2V18.8002C174.2 18.1402 174.74 17.6002 175.4 17.6002H192.2C192.86 17.6002 193.4 18.1402 193.4 18.8002V20.0002Z" fill="url(#paint1_linear_59_246)"/>
</g>
<rect x="172.5" y="15.5" width="23" height="18.2" stroke="url(#paint2_linear_59_246)"/>
<defs>
<linearGradient id="paint0_linear_59_246" x1="212.114" y1="28.7713" x2="154.97" y2="25.6155" gradientUnits="userSpaceOnUse">
<stop offset="0.18" stop-color="#000609"/>
<stop offset="0.51" stop-color="#0047FF"/>
<stop offset="0.92" stop-color="#2CB3FF"/>
</linearGradient>
<linearGradient id="paint1_linear_59_246" x1="197.294" y1="26.2484" x2="169.912" y2="24.3582" gradientUnits="userSpaceOnUse">
<stop offset="1" stop-color="#2CB3FF"/>
</linearGradient>
<linearGradient id="paint2_linear_59_246" x1="197.495" y1="26.0482" x2="170.113" y2="24.158" gradientUnits="userSpaceOnUse">
<stop offset="0.18" stop-color="#000609"/>
<stop offset="0.92" stop-color="#2CB3FF"/>
</linearGradient>
<clipPath id="clip0_59_246">
<rect width="27" height="23.625" fill="white" transform="translate(40 34)"/>
</clipPath>
<clipPath id="clip1_59_246">
<rect width="24" height="24" fill="white" transform="translate(107 34)"/>
</clipPath>
<clipPath id="clip2_59_246">
<rect width="24" height="24" fill="white" transform="translate(232 34)"/>
</clipPath>
<clipPath id="clip3_59_246">
<rect width="24" height="23" fill="white" transform="translate(296 35)"/>
</clipPath>
<clipPath id="clip4_59_246">
<rect x="172" y="15" width="24" height="19.2" fill="white"/>
</clipPath>
</defs>
</svg>
