<svg width="11" height="6" viewBox="0 0 11 6" fill="none" xmlns="http://www.w3.org/2000/svg">
<g clip-path="url(#clip0_66_507)">
<path d="M5.46817 4.89959C5.38848 4.89959 5.31543 4.88741 5.24903 4.86306C5.18262 4.83871 5.12285 4.7961 5.06973 4.73523L1.28457 1.26551C1.20488 1.19246 1.16504 1.09506 1.16504 0.973318C1.16504 0.851573 1.20488 0.754178 1.28457 0.681131C1.39082 0.583735 1.50039 0.541124 1.61328 0.553299C1.72617 0.565473 1.8291 0.608084 1.92207 0.681131L5.46817 3.93172L9.01426 0.681131C9.09395 0.608084 9.2002 0.568517 9.33301 0.562429C9.46582 0.556342 9.57207 0.595909 9.65176 0.681131C9.75801 0.766352 9.8045 0.866791 9.79121 0.982449C9.77793 1.09811 9.73145 1.19855 9.65176 1.28377L5.8666 4.73523C5.81348 4.7961 5.75371 4.83871 5.68731 4.86306C5.6209 4.88741 5.54785 4.89959 5.46817 4.89959Z" fill="white"/>
</g>
<defs>
<clipPath id="clip0_66_507">
<rect width="9.5625" height="4.78125" fill="white" transform="translate(0.6875 0.5)"/>
</clipPath>
</defs>
</svg>
