<svg width="6" height="3" viewBox="0 0 6 3" fill="none" xmlns="http://www.w3.org/2000/svg">
<g clip-path="url(#clip0_70_524)">
<path d="M2.99981 2.76058C2.94981 2.76058 2.90397 2.75294 2.86231 2.73767C2.82064 2.72239 2.78314 2.69565 2.74981 2.65746L0.374805 0.480374C0.324805 0.434541 0.299805 0.37343 0.299805 0.297041C0.299805 0.220652 0.324805 0.159541 0.374805 0.113708C0.441471 0.052597 0.510221 0.0258608 0.581055 0.0334997C0.651888 0.0411386 0.716472 0.0678748 0.774805 0.113708L2.99981 2.15329L5.22481 0.113708C5.27481 0.0678748 5.34147 0.0430482 5.42481 0.0392288C5.50814 0.0354093 5.57481 0.0602359 5.62481 0.113708C5.69147 0.16718 5.72064 0.230201 5.71231 0.30277C5.70397 0.37534 5.67481 0.438361 5.62481 0.491833L3.24981 2.65746C3.21647 2.69565 3.17897 2.72239 3.13731 2.73767C3.09564 2.75294 3.04981 2.76058 2.99981 2.76058Z" fill="white"/>
</g>
<defs>
<clipPath id="clip0_70_524">
<rect width="6" height="3" fill="white"/>
</clipPath>
</defs>
</svg>
