<svg width="898" height="913" viewBox="0 0 898 913" fill="none" xmlns="http://www.w3.org/2000/svg">
<g filter="url(#filter0_d_59_165)">
<g filter="url(#filter1_f_59_165)">
<path d="M431.244 306.124C452.862 295.998 476.059 300.682 500.716 313.125C530.896 328.355 602.449 372.598 596.76 404.733C592.844 426.856 563.901 419.767 544.944 407.77C491.918 374.213 438.417 378.578 418.629 355.431C404.589 339.007 410.351 315.911 431.244 306.124Z" fill="#1300E0"/>
<path d="M431.244 306.124C452.862 295.998 476.059 300.682 500.716 313.125C530.896 328.355 602.449 372.598 596.76 404.733C592.844 426.856 563.901 419.767 544.944 407.77C491.918 374.213 438.417 378.578 418.629 355.431C404.589 339.007 410.351 315.911 431.244 306.124Z" stroke="#0075FF"/>
</g>
<g filter="url(#filter2_f_59_165)">
<path d="M504.864 335.561C513.617 331.446 522.991 333.309 532.946 338.305C545.131 344.419 574.01 362.199 571.673 375.183C570.063 384.121 558.369 381.293 550.718 376.471C529.317 362.984 507.68 364.811 499.706 355.487C494.048 348.871 496.405 339.538 504.864 335.561Z" fill="url(#paint0_linear_59_165)"/>
<path d="M504.864 335.561C513.617 331.446 522.991 333.309 532.946 338.305C545.131 344.419 574.01 362.199 571.673 375.183C570.063 384.121 558.369 381.293 550.718 376.471C529.317 362.984 507.68 364.811 499.706 355.487C494.048 348.871 496.405 339.538 504.864 335.561Z" stroke="#0075FF"/>
</g>
<g filter="url(#filter3_f_59_165)">
<path d="M356.977 578.29C320.248 557.384 283.165 517.817 268.205 516.006C241.42 512.763 245.337 587.776 273.664 614.583C300.244 639.737 484.75 665.488 439.474 614.583C415.386 587.5 388.234 596.081 356.977 578.29Z" fill="#7598EC"/>
<path d="M356.977 578.29C320.248 557.384 283.165 517.817 268.205 516.006C241.42 512.763 245.337 587.776 273.664 614.583C300.244 639.737 484.75 665.488 439.474 614.583C415.386 587.5 388.234 596.081 356.977 578.29Z" stroke="#0075FF" stroke-width="0.821519"/>
</g>
<g filter="url(#filter4_f_59_165)">
<path d="M339.167 594.732C308.56 577.052 277.657 543.591 265.19 542.059C242.87 539.317 246.134 602.754 269.739 625.424C291.89 646.696 445.645 668.473 407.914 625.424C387.841 602.521 365.215 609.778 339.167 594.732Z" fill="#0496FF"/>
<path d="M339.167 594.732C308.56 577.052 277.657 543.591 265.19 542.059C242.87 539.317 246.134 602.754 269.739 625.424C291.89 646.696 445.645 668.473 407.914 625.424C387.841 602.521 365.215 609.778 339.167 594.732Z" stroke="#0075FF" stroke-width="0.821519"/>
</g>
<g filter="url(#filter5_f_59_165)">
<path d="M328.299 645.327C332.161 641.898 299.225 610.531 279.538 597.724C259.851 584.918 265.555 608.758 282.781 623.112C297.118 635.059 324.438 648.757 328.299 645.327Z" fill="#201CED"/>
<path d="M328.299 645.327C332.161 641.898 299.225 610.531 279.538 597.724C259.851 584.918 265.555 608.758 282.781 623.112C297.118 635.059 324.438 648.757 328.299 645.327Z" stroke="#0075FF" stroke-width="32.8607"/>
</g>
<g filter="url(#filter6_f_59_165)">
<path d="M337.745 605.001C306.555 587.322 275.063 553.86 262.359 552.329C239.613 549.587 242.94 613.024 266.995 635.693C289.567 656.966 446.251 678.743 407.802 635.693C387.346 612.79 364.289 620.047 337.745 605.001Z" fill="#1E29A9"/>
<path d="M337.745 605.001C306.555 587.322 275.063 553.86 262.359 552.329C239.613 549.587 242.94 613.024 266.995 635.693C289.567 656.966 446.251 678.743 407.802 635.693C387.346 612.79 364.289 620.047 337.745 605.001Z" stroke="#0075FF" stroke-width="0.821519"/>
</g>
<g filter="url(#filter7_f_59_165)">
<path d="M322.055 619.034C296.258 604.064 270.211 575.732 259.704 574.435C240.89 572.114 243.642 625.827 263.538 645.021C282.208 663.033 411.801 681.472 380 645.021C363.081 625.629 344.01 631.773 322.055 619.034Z" fill="#2066EF"/>
<path d="M322.055 619.034C296.258 604.064 270.211 575.732 259.704 574.435C240.89 572.114 243.642 625.827 263.538 645.021C282.208 663.033 411.801 681.472 380 645.021C363.081 625.629 344.01 631.773 322.055 619.034Z" stroke="#0075FF" stroke-width="0.821519"/>
</g>
<g filter="url(#filter8_f_59_165)">
<path d="M313.17 661.864C316.447 658.953 288.496 632.333 271.787 621.464C255.079 610.596 259.92 630.828 274.539 643.01C286.707 653.15 309.893 664.775 313.17 661.864Z" fill="#2400FF"/>
<path d="M313.17 661.864C316.447 658.953 288.496 632.333 271.787 621.464C255.079 610.596 259.92 630.828 274.539 643.01C286.707 653.15 309.893 664.775 313.17 661.864Z" stroke="#0075FF" stroke-width="32.8607"/>
</g>
</g>
<defs>
<filter id="filter0_d_59_165" x="240.898" y="300.105" width="360.68" height="386.73" filterUnits="userSpaceOnUse" color-interpolation-filters="sRGB">
<feFlood flood-opacity="0" result="BackgroundImageFix"/>
<feColorMatrix in="SourceAlpha" type="matrix" values="0 0 0 0 0 0 0 0 0 0 0 0 0 0 0 0 0 0 127 0" result="hardAlpha"/>
<feOffset dy="4"/>
<feGaussianBlur stdDeviation="2"/>
<feComposite in2="hardAlpha" operator="out"/>
<feColorMatrix type="matrix" values="0 0 0 0 0 0 0 0 0 0 0 0 0 0 0 0 0 0 0.25 0"/>
<feBlend mode="normal" in2="BackgroundImageFix" result="effect1_dropShadow_59_165"/>
<feBlend mode="normal" in="SourceGraphic" in2="effect1_dropShadow_59_165" result="shape"/>
</filter>
<filter id="filter1_f_59_165" x="110.444" y="0.10498" width="787.134" height="719.489" filterUnits="userSpaceOnUse" color-interpolation-filters="sRGB">
<feFlood flood-opacity="0" result="BackgroundImageFix"/>
<feBlend mode="normal" in="SourceGraphic" in2="BackgroundImageFix" result="shape"/>
<feGaussianBlur stdDeviation="150" result="effect1_foregroundBlur_59_165"/>
</filter>
<filter id="filter2_f_59_165" x="396.124" y="232.8" width="276.18" height="248.706" filterUnits="userSpaceOnUse" color-interpolation-filters="sRGB">
<feFlood flood-opacity="0" result="BackgroundImageFix"/>
<feBlend mode="normal" in="SourceGraphic" in2="BackgroundImageFix" result="shape"/>
<feGaussianBlur stdDeviation="50" result="effect1_foregroundBlur_59_165"/>
</filter>
<filter id="filter3_f_59_165" x="44.3274" y="310.113" width="608.054" height="539.558" filterUnits="userSpaceOnUse" color-interpolation-filters="sRGB">
<feFlood flood-opacity="0" result="BackgroundImageFix"/>
<feBlend mode="normal" in="SourceGraphic" in2="BackgroundImageFix" result="shape"/>
<feGaussianBlur stdDeviation="102.69" result="effect1_foregroundBlur_59_165"/>
</filter>
<filter id="filter4_f_59_165" x="3.25143" y="295.107" width="657.461" height="601.96" filterUnits="userSpaceOnUse" color-interpolation-filters="sRGB">
<feFlood flood-opacity="0" result="BackgroundImageFix"/>
<feBlend mode="normal" in="SourceGraphic" in2="BackgroundImageFix" result="shape"/>
<feGaussianBlur stdDeviation="123.228" result="effect1_foregroundBlur_59_165"/>
</filter>
<filter id="filter5_f_59_165" x="127.542" y="454.327" width="340.64" height="331.28" filterUnits="userSpaceOnUse" color-interpolation-filters="sRGB">
<feFlood flood-opacity="0" result="BackgroundImageFix"/>
<feBlend mode="normal" in="SourceGraphic" in2="BackgroundImageFix" result="shape"/>
<feGaussianBlur stdDeviation="61.6139" result="effect1_foregroundBlur_59_165"/>
</filter>
<filter id="filter6_f_59_165" x="41.2092" y="346.452" width="578.427" height="519.808" filterUnits="userSpaceOnUse" color-interpolation-filters="sRGB">
<feFlood flood-opacity="0" result="BackgroundImageFix"/>
<feBlend mode="normal" in="SourceGraphic" in2="BackgroundImageFix" result="shape"/>
<feGaussianBlur stdDeviation="102.69" result="effect1_foregroundBlur_59_165"/>
</filter>
<filter id="filter7_f_59_165" x="0.13327" y="327.496" width="631.732" height="585.37" filterUnits="userSpaceOnUse" color-interpolation-filters="sRGB">
<feFlood flood-opacity="0" result="BackgroundImageFix"/>
<feBlend mode="normal" in="SourceGraphic" in2="BackgroundImageFix" result="shape"/>
<feGaussianBlur stdDeviation="123.228" result="effect1_foregroundBlur_59_165"/>
</filter>
<filter id="filter8_f_59_165" x="121.671" y="478.62" width="331.335" height="323.443" filterUnits="userSpaceOnUse" color-interpolation-filters="sRGB">
<feFlood flood-opacity="0" result="BackgroundImageFix"/>
<feBlend mode="normal" in="SourceGraphic" in2="BackgroundImageFix" result="shape"/>
<feGaussianBlur stdDeviation="61.6139" result="effect1_foregroundBlur_59_165"/>
</filter>
<linearGradient id="paint0_linear_59_165" x1="505.743" y1="342.879" x2="548.253" y2="377.154" gradientUnits="userSpaceOnUse">
<stop offset="0.422952" stop-color="#0014FF"/>
</linearGradient>
</defs>
</svg>
